<mxfile host="app.diagrams.net" agent="Mozilla/5.0 (Windows NT 10.0; Win64; x64) AppleWebKit/537.36 (KHTML, like Gecko) Chrome/136.0.0.0 Safari/537.36 Edg/136.0.0.0" version="27.1.1">
  <diagram name="Pagina-1" id="0dzkZ5MN7ncnJMFn7Q6S">
    <mxGraphModel dx="1088" dy="508" grid="0" gridSize="10" guides="1" tooltips="1" connect="0" arrows="0" fold="1" page="1" pageScale="1" pageWidth="413" pageHeight="583" math="0" shadow="0">
      <root>
        <mxCell id="0" />
        <mxCell id="1" parent="0" />
        <mxCell id="gNHYL5g1EzsRVqw8KXna-23" value="" style="ellipse;whiteSpace=wrap;html=1;aspect=fixed;fillColor=none;strokeColor=#E1D5E7;" parent="1" vertex="1">
          <mxGeometry x="267" y="145.75" width="288.75" height="288.75" as="geometry" />
        </mxCell>
        <mxCell id="gNHYL5g1EzsRVqw8KXna-1" value="" style="endArrow=classic;html=1;rounded=0;" parent="1" edge="1">
          <mxGeometry width="50" height="50" relative="1" as="geometry">
            <mxPoint x="211.38" y="290" as="sourcePoint" />
            <mxPoint x="611.38" y="290" as="targetPoint" />
          </mxGeometry>
        </mxCell>
        <mxCell id="gNHYL5g1EzsRVqw8KXna-2" value="" style="endArrow=classic;html=1;rounded=0;" parent="1" edge="1">
          <mxGeometry width="50" height="50" relative="1" as="geometry">
            <mxPoint x="411.38" y="490" as="sourcePoint" />
            <mxPoint x="411.38" y="90" as="targetPoint" />
          </mxGeometry>
        </mxCell>
        <mxCell id="gNHYL5g1EzsRVqw8KXna-3" value="&lt;font face=&quot;Times New Roman&quot;&gt;E&lt;/font&gt;" style="text;html=1;align=center;verticalAlign=middle;whiteSpace=wrap;rounded=0;" parent="1" vertex="1">
          <mxGeometry x="401.38" y="80" width="60" height="30" as="geometry" />
        </mxCell>
        <mxCell id="gNHYL5g1EzsRVqw8KXna-4" value="&lt;font face=&quot;Times New Roman&quot;&gt;m&lt;/font&gt;" style="text;html=1;align=center;verticalAlign=middle;whiteSpace=wrap;rounded=0;" parent="1" vertex="1">
          <mxGeometry x="581.38" y="290" width="60" height="30" as="geometry" />
        </mxCell>
        <mxCell id="gNHYL5g1EzsRVqw8KXna-5" value="&lt;i&gt;Im&lt;/i&gt;" style="text;html=1;align=center;verticalAlign=middle;whiteSpace=wrap;rounded=0;fontFamily=Times New Roman;" parent="1" vertex="1">
          <mxGeometry x="381.38" y="50" width="60" height="30" as="geometry" />
        </mxCell>
        <mxCell id="gNHYL5g1EzsRVqw8KXna-6" value="&lt;font face=&quot;Times New Roman&quot;&gt;&lt;i&gt;Re&lt;/i&gt;&lt;/font&gt;" style="text;html=1;align=center;verticalAlign=middle;whiteSpace=wrap;rounded=0;" parent="1" vertex="1">
          <mxGeometry x="611.38" y="270" width="60" height="30" as="geometry" />
        </mxCell>
        <mxCell id="gNHYL5g1EzsRVqw8KXna-7" value="" style="endArrow=classic;html=1;rounded=0;fillColor=#f8cecc;strokeColor=#b85450;" parent="1" edge="1">
          <mxGeometry width="50" height="50" relative="1" as="geometry">
            <mxPoint x="411.38" y="290" as="sourcePoint" />
            <mxPoint x="531.38" y="210" as="targetPoint" />
          </mxGeometry>
        </mxCell>
        <mxCell id="gNHYL5g1EzsRVqw8KXna-8" value="" style="endArrow=none;dashed=1;html=1;rounded=0;fillColor=#f5f5f5;strokeColor=#666666;" parent="1" edge="1">
          <mxGeometry width="50" height="50" relative="1" as="geometry">
            <mxPoint x="531.38" y="290" as="sourcePoint" />
            <mxPoint x="531.38" y="210" as="targetPoint" />
          </mxGeometry>
        </mxCell>
        <mxCell id="gNHYL5g1EzsRVqw8KXna-9" value="" style="endArrow=none;dashed=1;html=1;rounded=0;fillColor=#f5f5f5;strokeColor=#666666;" parent="1" edge="1">
          <mxGeometry width="50" height="50" relative="1" as="geometry">
            <mxPoint x="411.38" y="210" as="sourcePoint" />
            <mxPoint x="531.38" y="210" as="targetPoint" />
          </mxGeometry>
        </mxCell>
        <mxCell id="gNHYL5g1EzsRVqw8KXna-10" value="&lt;font face=&quot;Times New Roman&quot;&gt;z&lt;font style=&quot;font-size: 6px;&quot;&gt;0&lt;/font&gt;&lt;/font&gt;" style="text;html=1;align=center;verticalAlign=middle;whiteSpace=wrap;rounded=0;" parent="1" vertex="1">
          <mxGeometry x="511.38" y="190" width="60" height="30" as="geometry" />
        </mxCell>
        <mxCell id="gNHYL5g1EzsRVqw8KXna-12" value="&lt;font face=&quot;Times New Roman&quot;&gt;r&lt;font style=&quot;font-size: 6px;&quot;&gt;0&lt;/font&gt;&lt;/font&gt;" style="text;html=1;align=center;verticalAlign=middle;whiteSpace=wrap;rounded=0;rotation=-35;" parent="1" vertex="1">
          <mxGeometry x="439.38" y="225" width="60" height="30" as="geometry" />
        </mxCell>
        <mxCell id="gNHYL5g1EzsRVqw8KXna-13" value="&lt;span style=&quot;font-family: KaTeX_Math; font-style: italic; text-align: start; text-wrap-mode: nowrap;&quot;&gt;&lt;font style=&quot;color: rgb(0, 0, 0); font-size: 12px;&quot;&gt;Î¸&lt;/font&gt;&lt;font style=&quot;color: rgb(0, 0, 0); font-size: 6px;&quot;&gt;0&lt;/font&gt;&lt;/span&gt;" style="text;html=1;align=center;verticalAlign=middle;whiteSpace=wrap;rounded=0;fillColor=none;strokeColor=none;" parent="1" vertex="1">
          <mxGeometry x="435.38" y="258" width="60" height="30" as="geometry" />
        </mxCell>
        <mxCell id="gNHYL5g1EzsRVqw8KXna-15" value="&lt;font face=&quot;Times New Roman&quot;&gt;Reality m&lt;font style=&quot;font-size: 6px;&quot;&gt;z&lt;/font&gt;&lt;/font&gt;" style="text;html=1;align=center;verticalAlign=middle;whiteSpace=wrap;rounded=0;" parent="1" vertex="1">
          <mxGeometry x="561.38" y="320" width="60" height="30" as="geometry" />
        </mxCell>
        <mxCell id="gNHYL5g1EzsRVqw8KXna-16" value="" style="endArrow=classic;html=1;rounded=0;exitX=0.498;exitY=0.111;exitDx=0;exitDy=0;exitPerimeter=0;fillColor=#d5e8d4;strokeColor=#82b366;" parent="1" source="gNHYL5g1EzsRVqw8KXna-15" edge="1">
          <mxGeometry width="50" height="50" relative="1" as="geometry">
            <mxPoint x="461.38" y="490" as="sourcePoint" />
            <mxPoint x="531.38" y="290" as="targetPoint" />
          </mxGeometry>
        </mxCell>
        <mxCell id="gNHYL5g1EzsRVqw8KXna-17" value="" style="endArrow=none;dashed=1;html=1;dashPattern=1 3;strokeWidth=2;rounded=0;" parent="1" edge="1">
          <mxGeometry width="50" height="50" relative="1" as="geometry">
            <mxPoint x="531.38" y="490" as="sourcePoint" />
            <mxPoint x="531.38" y="90" as="targetPoint" />
          </mxGeometry>
        </mxCell>
        <mxCell id="gNHYL5g1EzsRVqw8KXna-18" value="" style="endArrow=classic;html=1;rounded=0;strokeColor=#E6E6E6;" parent="1" edge="1">
          <mxGeometry width="50" height="50" relative="1" as="geometry">
            <mxPoint x="411.38" y="290" as="sourcePoint" />
            <mxPoint x="531.38" y="130" as="targetPoint" />
          </mxGeometry>
        </mxCell>
        <mxCell id="gNHYL5g1EzsRVqw8KXna-19" value="" style="shape=waypoint;sketch=0;size=6;pointerEvents=1;points=[];fillColor=none;resizable=0;rotatable=0;perimeter=centerPerimeter;snapToPoint=1;" parent="1" vertex="1">
          <mxGeometry x="521.38" y="200" width="20" height="20" as="geometry" />
        </mxCell>
        <mxCell id="gNHYL5g1EzsRVqw8KXna-20" value="" style="endArrow=classic;html=1;rounded=0;strokeColor=#E1D5E7;" parent="1" edge="1">
          <mxGeometry width="50" height="50" relative="1" as="geometry">
            <mxPoint x="411.38" y="290" as="sourcePoint" />
            <mxPoint x="531.38" y="370" as="targetPoint" />
          </mxGeometry>
        </mxCell>
        <mxCell id="bIzNZGrFHWMaeU-FCnaf-1" value="&lt;font face=&quot;Times New Roman&quot;&gt;z&lt;font style=&quot;font-size: 6px;&quot;&gt;n&lt;/font&gt;&lt;/font&gt;" style="text;html=1;align=center;verticalAlign=middle;whiteSpace=wrap;rounded=0;" vertex="1" parent="1">
          <mxGeometry x="511.38" y="115.75" width="60" height="30" as="geometry" />
        </mxCell>
        <mxCell id="bIzNZGrFHWMaeU-FCnaf-4" value="&lt;font face=&quot;Times New Roman&quot;&gt;z&lt;font style=&quot;font-size: 6px;&quot;&gt;-n&lt;/font&gt;&lt;/font&gt;" style="text;html=1;align=center;verticalAlign=middle;whiteSpace=wrap;rounded=0;" vertex="1" parent="1">
          <mxGeometry x="511.38" y="360" width="60" height="30" as="geometry" />
        </mxCell>
        <mxCell id="bIzNZGrFHWMaeU-FCnaf-8" value="&lt;font face=&quot;Times New Roman&quot;&gt;E&lt;font style=&quot;font-size: 6px;&quot;&gt;z&lt;/font&gt;&lt;/font&gt;" style="text;html=1;align=center;verticalAlign=middle;whiteSpace=wrap;rounded=0;" vertex="1" parent="1">
          <mxGeometry x="361.38" y="195" width="60" height="30" as="geometry" />
        </mxCell>
        <mxCell id="bIzNZGrFHWMaeU-FCnaf-9" value="&lt;font style=&quot;font-size: 14px;&quot; face=&quot;Times New Roman&quot;&gt;&lt;b&gt;I&lt;/b&gt;&lt;/font&gt;" style="text;html=1;align=center;verticalAlign=middle;whiteSpace=wrap;rounded=0;" vertex="1" parent="1">
          <mxGeometry x="561.38" y="115.75" width="60" height="30" as="geometry" />
        </mxCell>
        <mxCell id="bIzNZGrFHWMaeU-FCnaf-10" value="&lt;font style=&quot;font-size: 14px;&quot; face=&quot;Times New Roman&quot;&gt;&lt;b&gt;II&lt;/b&gt;&lt;/font&gt;" style="text;html=1;align=center;verticalAlign=middle;whiteSpace=wrap;rounded=0;" vertex="1" parent="1">
          <mxGeometry x="207" y="115.75" width="60" height="30" as="geometry" />
        </mxCell>
        <mxCell id="bIzNZGrFHWMaeU-FCnaf-11" value="&lt;font style=&quot;font-size: 14px;&quot; face=&quot;Times New Roman&quot;&gt;&lt;b&gt;III&lt;/b&gt;&lt;/font&gt;" style="text;html=1;align=center;verticalAlign=middle;whiteSpace=wrap;rounded=0;" vertex="1" parent="1">
          <mxGeometry x="207" y="404.5" width="60" height="30" as="geometry" />
        </mxCell>
        <mxCell id="bIzNZGrFHWMaeU-FCnaf-12" value="&lt;font style=&quot;font-size: 14px;&quot; face=&quot;Times New Roman&quot;&gt;&lt;b&gt;IV&lt;/b&gt;&lt;/font&gt;" style="text;html=1;align=center;verticalAlign=middle;whiteSpace=wrap;rounded=0;" vertex="1" parent="1">
          <mxGeometry x="555.75" y="404.5" width="60" height="30" as="geometry" />
        </mxCell>
      </root>
    </mxGraphModel>
  </diagram>
</mxfile>
